<svg width="206" height="27" viewBox="0 0 206 27" fill="none" xmlns="http://www.w3.org/2000/svg">
<path d="M0.00800003 15.92C0.00800003 13.856 0.392 12.044 1.16 10.484C1.952 8.924 3.02 7.724 4.364 6.884C5.708 6.044 7.208 5.624 8.864 5.624C10.28 5.624 11.516 5.912 12.572 6.488C13.652 7.064 14.48 7.82 15.056 8.756V5.912H21.212V26H15.056V23.156C14.456 24.092 13.616 24.848 12.536 25.424C11.48 26 10.244 26.288 8.828 26.288C7.196 26.288 5.708 25.868 4.364 25.028C3.02 24.164 1.952 22.952 1.16 21.392C0.392 19.808 0.00800003 17.984 0.00800003 15.92ZM15.056 15.956C15.056 14.42 14.624 13.208 13.76 12.32C12.92 11.432 11.888 10.988 10.664 10.988C9.44 10.988 8.396 11.432 7.532 12.32C6.692 13.184 6.272 14.384 6.272 15.92C6.272 17.456 6.692 18.68 7.532 19.592C8.396 20.48 9.44 20.924 10.664 20.924C11.888 20.924 12.92 20.48 13.76 19.592C14.624 18.704 15.056 17.492 15.056 15.956ZM54.5016 5.912L49.0656 26H42.2616L39.0936 12.968L35.8176 26H29.0496L23.5776 5.912H29.7336L32.5776 20.276L35.9616 5.912H42.4776L45.8976 20.204L48.7056 5.912H54.5016ZM65.0212 26.288C63.2692 26.288 61.7092 25.988 60.3412 25.388C58.9732 24.788 57.8932 23.972 57.1012 22.94C56.3092 21.884 55.8652 20.708 55.7692 19.412H61.8532C61.9252 20.108 62.2492 20.672 62.8252 21.104C63.4012 21.536 64.1092 21.752 64.9492 21.752C65.7172 21.752 66.3052 21.608 66.7132 21.32C67.1452 21.008 67.3612 20.612 67.3612 20.132C67.3612 19.556 67.0612 19.136 66.4612 18.872C65.8612 18.584 64.8892 18.272 63.5452 17.936C62.1052 17.6 60.9052 17.252 59.9452 16.892C58.9852 16.508 58.1572 15.92 57.4612 15.128C56.7652 14.312 56.4172 13.22 56.4172 11.852C56.4172 10.7 56.7292 9.656 57.3532 8.72C58.0012 7.76 58.9372 7.004 60.1612 6.452C61.4092 5.9 62.8852 5.624 64.5892 5.624C67.1092 5.624 69.0892 6.248 70.5292 7.496C71.9932 8.744 72.8332 10.4 73.0492 12.464H67.3612C67.2652 11.768 66.9532 11.216 66.4252 10.808C65.9212 10.4 65.2492 10.196 64.4092 10.196C63.6892 10.196 63.1372 10.34 62.7532 10.628C62.3692 10.892 62.1772 11.264 62.1772 11.744C62.1772 12.32 62.4772 12.752 63.0772 13.04C63.7012 13.328 64.6612 13.616 65.9572 13.904C67.4452 14.288 68.6572 14.672 69.5932 15.056C70.5292 15.416 71.3452 16.016 72.0412 16.856C72.7612 17.672 73.1332 18.776 73.1572 20.168C73.1572 21.344 72.8212 22.4 72.1492 23.336C71.5012 24.248 70.5532 24.968 69.3052 25.496C68.0812 26.024 66.6532 26.288 65.0212 26.288Z" fill="black"/>
<path d="M93.6994 8.72C93.2434 7.88 92.5834 7.244 91.7194 6.812C90.8794 6.356 89.8834 6.128 88.7314 6.128C86.7394 6.128 85.1434 6.788 83.9434 8.108C82.7434 9.404 82.1434 11.144 82.1434 13.328C82.1434 15.656 82.7674 17.48 84.0154 18.8C85.2874 20.096 87.0274 20.744 89.2354 20.744C90.7474 20.744 92.0194 20.36 93.0514 19.592C94.1074 18.824 94.8754 17.72 95.3554 16.28H87.5434V11.744H100.935V17.468C100.479 19.004 99.6994 20.432 98.5954 21.752C97.5154 23.072 96.1354 24.14 94.4554 24.956C92.7754 25.772 90.8794 26.18 88.7674 26.18C86.2714 26.18 84.0394 25.64 82.0714 24.56C80.1274 23.456 78.6034 21.932 77.4994 19.988C76.4194 18.044 75.8794 15.824 75.8794 13.328C75.8794 10.832 76.4194 8.612 77.4994 6.668C78.6034 4.7 80.1274 3.176 82.0714 2.096C84.0154 0.991999 86.2354 0.439999 88.7314 0.439999C91.7554 0.439999 94.2994 1.172 96.3634 2.636C98.4514 4.1 99.8314 6.128 100.503 8.72H93.6994ZM103.121 15.92C103.121 13.856 103.505 12.044 104.273 10.484C105.065 8.924 106.133 7.724 107.477 6.884C108.821 6.044 110.321 5.624 111.977 5.624C113.393 5.624 114.629 5.912 115.685 6.488C116.765 7.064 117.593 7.82 118.169 8.756V5.912H124.325V26H118.169V23.156C117.569 24.092 116.729 24.848 115.649 25.424C114.593 26 113.357 26.288 111.941 26.288C110.309 26.288 108.821 25.868 107.477 25.028C106.133 24.164 105.065 22.952 104.273 21.392C103.505 19.808 103.121 17.984 103.121 15.92ZM118.169 15.956C118.169 14.42 117.737 13.208 116.873 12.32C116.033 11.432 115.001 10.988 113.777 10.988C112.553 10.988 111.509 11.432 110.645 12.32C109.805 13.184 109.385 14.384 109.385 15.92C109.385 17.456 109.805 18.68 110.645 19.592C111.509 20.48 112.553 20.924 113.777 20.924C115.001 20.924 116.033 20.48 116.873 19.592C117.737 18.704 118.169 17.492 118.169 15.956ZM154.411 5.696C156.907 5.696 158.887 6.452 160.351 7.964C161.839 9.476 162.583 11.576 162.583 14.264V26H156.463V15.092C156.463 13.796 156.115 12.8 155.419 12.104C154.747 11.384 153.811 11.024 152.611 11.024C151.411 11.024 150.463 11.384 149.767 12.104C149.095 12.8 148.759 13.796 148.759 15.092V26H142.639V15.092C142.639 13.796 142.291 12.8 141.595 12.104C140.923 11.384 139.987 11.024 138.787 11.024C137.587 11.024 136.639 11.384 135.943 12.104C135.271 12.8 134.935 13.796 134.935 15.092V26H128.779V5.912H134.935V8.432C135.559 7.592 136.375 6.932 137.383 6.452C138.391 5.948 139.531 5.696 140.803 5.696C142.315 5.696 143.659 6.02 144.835 6.668C146.035 7.316 146.971 8.24 147.643 9.44C148.339 8.336 149.287 7.436 150.487 6.74C151.687 6.044 152.995 5.696 154.411 5.696ZM185.824 15.632C185.824 16.208 185.788 16.808 185.716 17.432H171.784C171.88 18.68 172.276 19.64 172.972 20.312C173.692 20.96 174.568 21.284 175.6 21.284C177.136 21.284 178.204 20.636 178.804 19.34H185.356C185.02 20.66 184.408 21.848 183.52 22.904C182.656 23.96 181.564 24.788 180.244 25.388C178.924 25.988 177.448 26.288 175.816 26.288C173.848 26.288 172.096 25.868 170.56 25.028C169.024 24.188 167.824 22.988 166.96 21.428C166.096 19.868 165.664 18.044 165.664 15.956C165.664 13.868 166.084 12.044 166.924 10.484C167.788 8.924 168.988 7.724 170.524 6.884C172.06 6.044 173.824 5.624 175.816 5.624C177.76 5.624 179.488 6.032 181 6.848C182.512 7.664 183.688 8.828 184.528 10.34C185.392 11.852 185.824 13.616 185.824 15.632ZM179.524 14.012C179.524 12.956 179.164 12.116 178.444 11.492C177.724 10.868 176.824 10.556 175.744 10.556C174.712 10.556 173.836 10.856 173.116 11.456C172.42 12.056 171.988 12.908 171.82 14.012H179.524ZM197.244 26.288C195.492 26.288 193.932 25.988 192.564 25.388C191.196 24.788 190.116 23.972 189.324 22.94C188.532 21.884 188.088 20.708 187.992 19.412H194.076C194.148 20.108 194.472 20.672 195.048 21.104C195.624 21.536 196.332 21.752 197.172 21.752C197.94 21.752 198.528 21.608 198.936 21.32C199.368 21.008 199.584 20.612 199.584 20.132C199.584 19.556 199.284 19.136 198.684 18.872C198.084 18.584 197.112 18.272 195.768 17.936C194.328 17.6 193.128 17.252 192.168 16.892C191.208 16.508 190.38 15.92 189.684 15.128C188.988 14.312 188.64 13.22 188.64 11.852C188.64 10.7 188.952 9.656 189.576 8.72C190.224 7.76 191.16 7.004 192.384 6.452C193.632 5.9 195.108 5.624 196.812 5.624C199.332 5.624 201.312 6.248 202.752 7.496C204.216 8.744 205.056 10.4 205.272 12.464H199.584C199.488 11.768 199.176 11.216 198.648 10.808C198.144 10.4 197.472 10.196 196.632 10.196C195.912 10.196 195.36 10.34 194.976 10.628C194.592 10.892 194.4 11.264 194.4 11.744C194.4 12.32 194.7 12.752 195.3 13.04C195.924 13.328 196.884 13.616 198.18 13.904C199.668 14.288 200.88 14.672 201.816 15.056C202.752 15.416 203.568 16.016 204.264 16.856C204.984 17.672 205.356 18.776 205.38 20.168C205.38 21.344 205.044 22.4 204.372 23.336C203.724 24.248 202.776 24.968 201.528 25.496C200.304 26.024 198.876 26.288 197.244 26.288Z" fill="#FF0000"/>
</svg>
