<svg width="82" height="82" viewBox="0 0 82 82" fill="none" xmlns="http://www.w3.org/2000/svg">
<g filter="url(#filter0_f)">
<path fill-rule="evenodd" clip-rule="evenodd" d="M41 73.7999C49.6991 73.7999 58.0419 70.3442 64.1931 64.1931C70.3443 58.0419 73.8 49.6991 73.8 41C73.8 32.3008 70.3443 23.958 64.1931 17.8068C58.0419 11.6557 49.6991 8.19995 41 8.19995C32.3009 8.19995 23.9581 11.6557 17.8069 17.8068C11.6557 23.958 8.20001 32.3008 8.20001 41C8.20001 49.6991 11.6557 58.0419 17.8069 64.1931C23.9581 70.3442 32.3009 73.7999 41 73.7999V73.7999ZM39.1755 29.3888C38.5581 28.9768 37.8403 28.7402 37.0989 28.7042C36.3575 28.6682 35.6203 28.8341 34.9658 29.1843C34.3113 29.5344 33.7642 30.0557 33.3827 30.6925C33.0013 31.3293 32.7999 32.0577 32.8 32.8V49.2C32.7999 49.9422 33.0013 50.6706 33.3827 51.3074C33.7642 51.9442 34.3113 52.4655 34.9658 52.8156C35.6203 53.1658 36.3575 53.3317 37.0989 53.2957C37.8403 53.2597 38.5581 53.0231 39.1755 52.6111L51.4755 44.4111C52.037 44.0367 52.4975 43.5295 52.8159 42.9344C53.1343 42.3393 53.3009 41.6749 53.3009 41C53.3009 40.325 53.1343 39.6606 52.8159 39.0655C52.4975 38.4704 52.037 37.9632 51.4755 37.5888L39.1755 29.3888V29.3888Z" fill="#8D8888" fill-opacity="0.58"/>
</g>
<defs>
<filter id="filter0_f" x="6.20001" y="6.19995" width="69.6" height="69.6" filterUnits="userSpaceOnUse" color-interpolation-filters="sRGB">
<feFlood flood-opacity="0" result="BackgroundImageFix"/>
<feBlend mode="normal" in="SourceGraphic" in2="BackgroundImageFix" result="shape"/>
<feGaussianBlur stdDeviation="1" result="effect1_foregroundBlur"/>
</filter>
</defs>
</svg>
