<svg width="22" height="22" viewBox="0 0 22 22" fill="none" xmlns="http://www.w3.org/2000/svg">
<path d="M16.75 16.75L20.5 20.5M19.25 10.5C19.25 8.17936 18.3281 5.95376 16.6872 4.31282C15.0462 2.67187 12.8206 1.75 10.5 1.75C8.17936 1.75 5.95376 2.67187 4.31282 4.31282C2.67187 5.95376 1.75 8.17936 1.75 10.5C1.75 11.6491 1.97633 12.7869 2.41605 13.8485C2.85578 14.9101 3.5003 15.8747 4.31282 16.6872C5.12533 17.4997 6.08992 18.1442 7.15152 18.5839C8.21312 19.0237 9.35093 19.25 10.5 19.25C11.6491 19.25 12.7869 19.0237 13.8485 18.5839C14.9101 18.1442 15.8747 17.4997 16.6872 16.6872" stroke="#626262" stroke-width="3" stroke-linecap="round" stroke-linejoin="round"/>
</svg>
